<?xml version="1.0" encoding="utf-8"?>
<!-- Generator: Adobe Illustrator 28.4.1, SVG Export Plug-In . SVG Version: 6.00 Build 0)  -->
<svg version="1.1" id="Layer_1" xmlns="http://www.w3.org/2000/svg" xmlns:xlink="http://www.w3.org/1999/xlink" x="0px" y="0px"
	 viewBox="0 0 800 800" style="enable-background:new 0 0 800 800;" xml:space="preserve">
<style type="text/css">
	.st0{fill:#1C274C;}
</style>
<path class="st0" d="M400,66.7C215.9,66.7,66.7,215.9,66.7,400c0,15.4,23.1,18,31.1,4.8C135.7,342,204.6,300,283.3,300
	C403,300,500,397,500,516.7c0,78.7-42,147.6-104.8,185.6c-13.2,8-10.6,31.1,4.8,31.1c184.1,0,333.3-149.2,333.3-333.3
	C733.3,215.9,584.1,66.7,400,66.7z"/>
<path class="st0" d="M250.4,374.5c-53.2,11.5-95.7,52.4-108.8,105.3c-2.5,10.2-4,20.3-4.4,30.1c-0.4,9.3,11.6,13.5,17,5.9
	c17.2-24.3,45.8-39.9,77.9-39.3c49.8,1,90.4,41.6,91.3,91.3c0.7,33.2-16.1,62.6-41.7,79.6c-7.1,4.7-3.5,15.7,5,15.5
	c10.9-0.3,22.1-1.8,33.4-4.6c52.9-13.1,93.7-55.5,105.3-108.8C448.4,443.7,356.3,351.6,250.4,374.5z"/>
</svg>
