<?xml version="1.0" encoding="UTF-8"?><svg id="a" xmlns="http://www.w3.org/2000/svg" viewBox="0 0 501.8 431.49"><path d="M300.86,431.39c-34.13.9-67.35-4.72-99.97-14.11-29.4-8.46-56.68-21.31-79.77-41.84-26.73-23.76-44.65-52.63-50.12-88.48-.58-3.78-1.21-7.64-1.04-11.43.19-4.22-1.92-6.05-5.41-7.12-2.52-.77-5.2-1.2-7.57-2.29-2.78-1.28-6.22-2.53-5.13-6.77.61-2.38-1.06-1.92-2.22-2.1-3.89-.59-4.63-2.94-3.17-6.12,1.17-2.55,2.57-5.05,4.21-7.33,7.86-10.87,10.29-23.26,10.5-36.33.03-1.94-.57-3.12-2.26-3.95-15.31-7.56-25.99-20.12-35.33-33.8-9.97-14.61-18.22-30.18-22.53-47.54-3.64-14.65,2.37-23.13,17.28-24.09,21.73-1.4,43.29-.38,64.44,5.3,1.76.47,3.81.77,5.11,1.87,4.87,4.13,8.87,3.34,13.17-1.03,2.53-2.57,5.85-4.39,8.92-6.38,1.83-1.19,2.54-2.15.2-3.44-2.21-1.22-2.89-3.13-2.39-5.49.56-2.6,2.72-3.15,4.89-3.56,1.91-.36,3.53-.12,3.35-3.39-.19-3.46,2.72-5.6,6.33-5.79,16.79-.9,33.53-3.37,50.37-1.93,3.71.32,4.08-1.73,4.94-4.05,9.8-26.51,26.36-48,48.58-65.24,9.49-7.36,18.84-6.43,27.13,2.23,12.31,12.85,17.28,29.38,22.85,45.56,5.62,16.3,7.75,33.05,5.08,50.2-.7,4.51.9,6.65,5.15,7.88,10.07,2.91,20.19,5.52,30.44,7.71,15.69,3.35,31.95,2,47.55,5.77,18.6,4.5,37.32,8.97,54.3,18.11,34.29,18.48,58.59,46.06,72.81,82.36,13.54,34.56,13.82,69.42-.11,103.73-13.62,33.54-37.71,57.7-69.84,74.45-35.43,18.47-73.22,26.68-112.75,28.44-2.66.12-5.32.02-7.99.02ZM281.92,115.69c-.54-.31-1.1-.73-1.6,0-.03.04.58.53.9.8.58.44,1.15.87,1.73,1.31,10.08,7.55,20.61,14.07,33.62,15.2,2.41.21,5.02,2.64,3.93,4.11-3.22,4.38-1.32,7.55.81,11.26.59,1.03-.02,2.95-.48,4.34-.88,2.68-1.86,5.36-3.1,7.89-12.1,24.69-27.28,47.23-46.6,66.89-2.45,2.49-4.88,5.02-7.2,7.63-.73.83-2.24,1.51-.72,3.24,2.39,2.73.51,4.15-2.11,4.89-4.8,1.37-9.68,2.45-14.43,3.98-9.61,3.09-18.38,7.79-25.73,14.81-4.28,4.1-6.53,9.17-6.83,15.77,2.03-1.09,2.49-3.81,4.4-2.88,2.11,1.03.37,2.92.26,4.43-.13,1.82-.61,3.67-.45,5.46.29,3.15,2.77,4.8,5.45,4.9,2.83.11,1.26-2.74,1.72-4.23.5-1.58.6-3.29,1.12-4.85.44-1.32.65-3.28,2.7-2.97,2.21.33,2.22,2.12,1.96,3.88-.14.99-.31,1.97-.46,2.96-.47,3.26.75,4.46,4.18,4.14,4.78-.45,7.81-3.61,10.91-6.53,8.58-8.08,18.58-11.11,30.25-9.96,7.18.71,13.17,4.5,19.82,6.51.37.09.74.17,1.11.26-.05-.39-.1-.78-.15-1.17-6.4-16.32-6.98-33.05-.93-49.31,14.68-39.46,52.18-54.09,91.11-51.54,2.41.16,5.04,1.21,4.6,4.1-.41,2.69-2.98,2.42-5.28,2.2-13.08-1.24-26-.08-38.46,4.07-39.46,13.14-59.99,49.99-44.68,91.26.81,2.17,1.62,4.12,4.1,5.27,20.95,9.78,41.58,20.33,65.05,23.08,15.36,1.8,30.48,2.2,44.97-4.42,3.03-1.38,6.12-2.62,9.18-3.91,1.69-.71,3.29-.83,4.33,1.04,1.06,1.91.06,3.24-1.53,4.12-2.76,1.53-5.54,3.04-8.43,4.31-16.18,7.09-33.2,6.21-50.15,4.72-18.55-1.63-35.28-9.19-51.89-17-12.01-5.65-23.8-11.72-36.43-16.09-12.53-4.33-23.18-2.1-32.84,6.47-4.46,3.95-9.04,7.61-15.08,8.6.28,1.62,1.33,1.9,2.15,2.38,1.95,1.15,4.68,1.68,4.45,4.7-.25,3.26-2.96,4.08-5.51,5.01-3.17,1.16-6.32,2.4-9.91,3.77,3.81,4.29,8.09,6.61,11.83,9.6,1.98,1.58,5.31,2.4,4.58,5.81-.67,3.13-3.84,2.62-6.14,3.26-4.17,1.16-8.36,2.22-12.5,3.46-5.33,1.61-5.45,1.77-1.99,6.43,3.68,4.94,7.68,9.63,11.48,14.48,2.86,3.66,1.86,6.13-2.72,6.73-8.58,1.13-17.17,2.25-25.77,3.24-2.87.33-3.6,1.18-2.46,4.09,2.7,6.88,6.24,13.21,10.77,19.04,3.5,4.5,2.79,6.16-2.9,7.06-3.45.54-6.92,1.1-10.4,1.39-2.81.23-3.53,1.17-2.1,3.73,4.39,7.83,9.09,15.05,19.2,16.36,5.76.74,11.41,2.33,17.11,3.52,41.1,8.6,82.12,9.8,123.4.53,27.41-6.16,54.12-14.66,76.91-30.84,37.29-26.48,59.72-62.16,61.01-109.57.95-35.08-10.78-65.56-32.25-92.15-32.13-39.79-76.75-55.36-125.78-60.12-18.15-1.76-35.79-4.95-53.17-10.11-.66-.28-1.33-.57-1.99-.85ZM195.89,408.9c.44.27.9.49,1.23-.11.03-.06-.43-.37-.66-.57-1.62-3.07-3.47-6.04-4.82-9.23-2.39-5.66-.85-8.05,5.2-8.76,3.53-.41,7.06-.9,11.16-1.43-5.53-7.64-9.36-15.17-12.02-23.25-1.5-4.53-.47-6.08,4.25-6.8,1.81-.27,3.65-.26,5.47-.49,7.12-.91,14.24-1.86,22.09-2.89-5.36-5.99-9.16-11.83-12.94-17.69-3.28-5.08-2.41-7.38,3.41-8.94,5.33-1.44,10.7-2.75,16.69-4.28-4.63-3.52-9.07-5.91-12.52-9.54-3.69-3.89-3.06-7.25,1.78-9.3,3.03-1.29,6.15-2.35,10.05-3.82-3.88-1.6-4.13-6.23-8.11-6.65-11.88-1.26-16.26-5.14-18.06-16.66-.37-2.35-1.06-2.86-3.11-2.02-12.25,5.04-25.24,5.77-38.2,6.33-19.12.83-38.22,1.49-57.21-2.25-11.36-2.24-22.52-5.26-34.19-8.21.68,10.1,1.8,19.65,4.54,28.93,7.63,25.83,21.42,47.83,41.32,65.99,21.62,19.73,46.49,33.65,74.67,41.65ZM56.69,115.05c-.33-.11-.66-.23-.98-.34l.24,1.06c.62,2.72,5.8,1.48,4.92,4.56-1.55,5.42,2.11,6.36,5.44,8.01,1.35.67,2.81,1.71,2.65,3.34-.2,1.98-2.31,1.44-3.6,1.97-3.41,1.38-7.59,1.49-9.33,5.44.58.93,1.26.74,1.91.61,2.14-.42,4.13-.1,5.17,1.97,1.09,2.16-.91,3.27-2.05,4.6-1.19,1.38-2.49,2.67-3.66,4.08-.53.65-.83,1.51-.11,2.26.91.93,1.45.02,1.96-.54,1.14-1.23,2.31-1.1,3.52-.16,1.46,1.12.67,2.31.17,3.56-1.3,3.2-3.51,6.02-3.65,9.71-.06,1.52-1.35,2.26-2.93,1.85-1.42-.38-2.27-1.25-2.14-2.89.13-1.61,1.46-3.68.04-4.77-5.45-4.17-2.78-8.83-1.13-13.59-1.7-.7-4.27.03-4.62-2.69-.9-6.97,5.63-8.55,9.37-12.35-10.39-7.58-22.36-8.96-34.24-10.25-5.73-.62-7.02,1.28-6.35,7.15.15,1.32.45,2.62.73,3.92,2.54,11.86,8.66,21.89,16.08,31.22,1.86,2.34,2.98,4.42.33,6.81-2.1,1.9-1.47,3.53.09,5.53,6.21,7.94,13.69,14.54,21.54,20.75,1.24.98,2.53,2.96,4.15,2.16,1.57-.78.7-3.02.87-4.6.6-5.63.92-11.29,1.6-16.91.21-1.73.87-3.88,3.43-3.36,2.09.43,2.11,2.29,2.1,3.99,0,.66-.1,1.33-.17,1.99-1.06,9.94-2,19.91-1.58,29.91.38,8.99-1.25,17.57-4.58,25.83-1.98,4.91-4.38,9.64-6.64,14.57,7.43.7,8.78,3.28,5.31,9.35-.75,1.32-2.39,2.49.73,3.44,17.04,5.18,34.24,9.58,51.79,12.73,29.83,5.37,59.31,3.59,88.58-3.66,5.42-1.34,10.43-3.29,12.28-9.5.45-1.49,1.81-2.8,2.97-3.97,8.06-8.12,17.66-13.52,28.89-15.81,2.23-.45,4-1.28,5.65-2.81,22.26-20.67,40.96-44.17,55.84-70.65,3.26-5.8,5.91-11.95,8.93-18.12-3.37-.5-6.22,4.13-8.63.48-2.03-3.08.87-5.9,2.27-8.64.08-.15.17-.29.27-.42,1.43-1.74,1.84-2.89-1.06-3.65-15.88-4.21-28.13-14.73-41.07-24.02-1.51-1.08-3.12-2.55-1.58-4.53,1.48-1.9,3.07-.41,4.26.64,2.92,2.57,3.67,1.13,4.19-1.87,1.71-9.91,2.19-19.87,1.16-29.86-.32-3.08-.51-6.33-2.12-9.37-1.38,1.26-1.16,2.45-1.23,3.59-.06,1.04,1.1,2.59-.51,3.02-1.38.37-3.52.04-3.94-1.33-.93-2.99-3.27-5.12-3.93-8.37-1.27-6.17-3.09-12.28-5.3-18.18-2.82-7.52-6.77-14.54-12.94-19.88-4.78-4.14-6.64-3.92-10.87.71-4.06,4.45-7.14,9.65-10.02,14.88-4.72,8.56-9.04,17.36-10.03,27.93,5.12-2.72,9.55-5.68,14.85-6.64,3.3-.6,6.36-.51,8.53,2.46,2.22,3.03-1.19,4.56-2.35,6.87,1.95.43,3.6.67,5.18,1.16,2.18.68,4.65,2.18,3.96,4.4-1.15,3.74.51,5.68,2.79,7.99,1.48,1.49,1.48,3.83-1.17,4.04-5.52.45-10.43-6.1-8.48-11.05-3.12-.6-7.31,1.26-9.02-2.48-1.65-3.6,3.44-5.06,4.04-8.15-1.54-.91-2.86-.5-4.11-.1-5.3,1.68-9.83,4.79-14.4,7.84-1.37.92-2.83,1.89-4.58.69-1.54-1.05-1.2-2.63-1.15-4.09.14-4.21,1.36-8.19,2.59-12.17.98-3.18,2.18-6.32,2.79-9.57.23-1.24,1-4.42-2.26-3.42-4.07,1.25-5.2-.05-4.63-3.95.22-1.51-.05-3.68-2.19-2.01-3.23,2.51-4.39-.14-5.92-2.34-8.04,9.49-12.16,20.42-16.61,31.16-.56,1.36-.55,2.59.55,3.68.93.92,2.09,1.64,1.03,3.3-1.02,1.61-2.4,1.54-3.93,1.33-13.3-1.84-26.62-.72-39.92-.18-4.96.2-10.01.44-15.98,2.16,1.8.61,2.44.76,3.01,1.04,1.69.85,4.22,1.04,3.71,3.86-.46,2.56-2.73,2.54-4.69,2.86-2.63.43-5.25.85-8.22,1.32,4.87,3.65,5.3,5.68,1.55,7.59-14.27,7.3-26.9,16.58-36.72,29.41-1.18,1.55-2.71,2.12-4.3.8-1.69-1.41-.28-2.77.54-3.89,2.38-3.21,4.83-6.37,7.37-9.45,1.92-2.33,2.04-3.92-1.18-5.08-5.16-1.86-10.36-3.52-15.74-4.68-3.38-.73-5.38-.33-6.23,3.55-.77,3.51-2.99,5.94-7.16,5.25Z" style="fill:#682b12; stroke-width:0px;"/><path d="M281.92,115.69c.66.28,1.33.57,1.99.85-.32.42-.65.84-.97,1.26-.58-.44-1.15-.87-1.73-1.31.23-.27.47-.54.7-.8Z" style="fill:#f7f7f6; stroke-width:0px;"/><path d="M55.95,115.78l-.24-1.06c.33.11.66.23.98.34-.25.24-.5.48-.74.73Z" style="fill:#f7f7f6; stroke-width:0px;"/><path d="M281.22,116.49c-.31-.28-.93-.76-.9-.8.5-.73,1.06-.31,1.6,0-.23.27-.47.54-.7.8Z" style="fill:#f7f7f6; stroke-width:0px;"/><path d="M296.97,277.78c.05.39.1.78.15,1.17-.37-.09-.74-.17-1.11-.26.32-.3.65-.6.97-.91Z" style="fill:#f7f7f6; stroke-width:0px;"/><path d="M196.46,408.22c.23.2.69.52.66.57-.32.6-.78.38-1.23.12.15-.26.34-.49.57-.69Z" style="fill:#f7f7f6; stroke-width:0px;"/><path d="M258.44,177.3c1.2,2.75.54,5.11-1.47,7.21-2.01,2.1-3.47,4.02-3.82,7.44-.5,4.82-4.31.94-6.65,1.18-9.59-6.28-24.82-1.97-31.09,8.64-1.27,2.15-1.52,6.74-5.37,4.99-3.5-1.59-1.25-5.24-.69-8.05,2.07-10.42,18.75-21.68,28.63-16.8,1.51.74,2.59-.18,3.42-1.22,1.24-1.55,2.35-3.2,3.41-4.88,1.12-1.77,1.94-4.66,4.61-3.05,2.21,1.33.74,3.81.26,5.9-.43,1.89-4.06,3.77-1.44,5.26,1.64.93,3.58-2.35,4.67-4.33,1.3-2.36,2.41-4.58,5.52-2.28Z" style="fill:#682b12; stroke-width:0px;"/><path d="M127.37,244.22c-.78,1.4-1.49,2.84-2.34,4.2-.8,1.27-2.34,2.99-3.44,1.78-2.93-3.22-6.83-2.56-10.33-3.37-1.73-.4-2.71-1.73-4.09-2.54.2-4.4,2.26-5.38,6.15-3.54,1.78.84,3.78.94,6.09.03-2.21-2.01-5.05-2.03-7.25-3.34-1.71-1.01-3-2.33-2.15-4.44,1-2.5,2.82-1.1,4.14-.44,4.6,2.31,8.03,1.6,11.86-2.27,7.73-7.8,19.26-9.13,28.52-4.14,1.3.7,2.56,1.56,3.65,2.56,1.25,1.15,2.28,2.66,1.33,4.42-1.22,2.25-2.89.67-4.31.16-9.91-3.54-19.92-1.06-26.16,6.55-1.03,1.26-2.39,2.43-1.66,4.38Z" style="fill:#682b12; stroke-width:0px;"/><path d="M188.84,226.21c6.12-.02,7.88,1.99,7.13,7.08-.32,2.17-1.22,4.09-2.25,6.02-1.16,2.17-1.52,4.58,1.01,6.16,2.32,1.45,4.5.63,6.33-1.11.7-.67,1.14-1.62,1.73-2.42.87-1.18.93-3.77,3.35-2.48,2.19,1.17,1.4,3.26.54,4.82-2.18,3.97-5.78,5.88-10.24,5.98-2.12.05-3.43.3-4.53,2.65-1.56,3.34-7.53,4.57-11.12,2.95-1.69-.76-2.82-1.92-2.18-3.89.71-2.19,2.2-1.26,3.64-.8,2.09.67,4.49,1.31,5.87-.97,1.21-2,1.29-4.22-1.75-5.03-.32-.08-.67-.03-.99-.09-7.49-1.31-10.86-3.8-10.97-8.09-.11-4.05,4.37-8.41,10.42-10.04,1.59-.43,3.25-.59,4.01-.72Z" style="fill:#682b12; stroke-width:0px;"/></svg>